

<svg xmlns="http://www.w3.org/2000/svg" width="24" height="25" viewBox="0 0 24 25" fill="none">
  <g clip-path="url(#clip0_114_936)">
    <path d="M12 3.13273C15.206 3.13273 15.5824 3.14702 16.8496 3.20419C18.0215 3.25659 18.655 3.45191 19.079 3.61864C19.6411 3.83777 20.0413 4.09502 20.4605 4.51423C20.8797 4.93345 21.1417 5.33361 21.3561 5.89573C21.5181 6.31971 21.7182 6.9533 21.7706 8.12519C21.8277 9.39236 21.842 9.7687 21.842 12.9747C21.842 16.1808 21.8277 16.5571 21.7706 17.8243C21.7182 18.9962 21.5228 19.6298 21.3561 20.0537C21.137 20.6159 20.8797 21.016 20.4605 21.4352C20.0413 21.8544 19.6411 22.1165 19.079 22.3308C18.655 22.4928 18.0215 22.6929 16.8496 22.7453C15.5824 22.8024 15.206 22.8167 12 22.8167C8.79397 22.8167 8.41763 22.8024 7.15046 22.7453C5.97857 22.6929 5.34498 22.4976 4.921 22.3308C4.35888 22.1117 3.95872 21.8544 3.5395 21.4352C3.12029 21.016 2.85828 20.6159 2.64391 20.0537C2.48194 19.6298 2.28186 18.9962 2.22946 17.8243C2.17229 16.5571 2.158 16.1808 2.158 12.9747C2.158 9.7687 2.17229 9.39236 2.22946 8.12519C2.28186 6.9533 2.47718 6.31971 2.64391 5.89573C2.86304 5.33361 3.12029 4.93345 3.5395 4.51423C3.95872 4.09502 4.35888 3.83301 4.921 3.61864C5.34498 3.45667 5.97857 3.25659 7.15046 3.20419C8.41763 3.14226 8.79874 3.13273 12 3.13273ZM12 0.969971C8.74157 0.969971 8.33188 0.984262 7.05042 1.04143C5.77372 1.09859 4.90195 1.30344 4.13974 1.59879C3.34895 1.90367 2.68202 2.31812 2.01509 2.98506C1.34816 3.65199 0.938468 4.32368 0.628821 5.10971C0.333466 5.87192 0.128623 6.74369 0.071457 8.02515C0.0142914 9.30185 0 9.71153 0 12.97C0 16.2284 0.0142914 16.6381 0.071457 17.9196C0.128623 19.1962 0.333466 20.068 0.628821 20.835C0.933705 21.6258 1.34816 22.2927 2.01509 22.9596C2.68202 23.6266 3.35371 24.0363 4.13974 24.3459C4.90195 24.6413 5.77372 24.8461 7.05519 24.9033C8.33665 24.9604 8.74157 24.9747 12.0048 24.9747C15.268 24.9747 15.6729 24.9604 16.9544 24.9033C18.2311 24.8461 19.1028 24.6413 19.8698 24.3459C20.6606 24.041 21.3275 23.6266 21.9945 22.9596C22.6614 22.2927 23.0711 21.621 23.3807 20.835C23.6761 20.0728 23.8809 19.201 23.9381 17.9196C23.9953 16.6381 24.0095 16.2332 24.0095 12.97C24.0095 9.70677 23.9953 9.30185 23.9381 8.02039C23.8809 6.74369 23.6761 5.87192 23.3807 5.10494C23.0758 4.31415 22.6614 3.64722 21.9945 2.98029C21.3275 2.31336 20.6558 1.90367 19.8698 1.59403C19.1076 1.29867 18.2358 1.09383 16.9544 1.03666C15.6681 0.984262 15.2584 0.969971 12 0.969971Z" fill="white"/>
    <path d="M12 3.13273C15.206 3.13273 15.5824 3.14702 16.8496 3.20419C18.0215 3.25659 18.655 3.45191 19.079 3.61864C19.6411 3.83777 20.0413 4.09502 20.4605 4.51423C20.8797 4.93345 21.1417 5.33361 21.3561 5.89573C21.5181 6.31971 21.7182 6.9533 21.7706 8.12519C21.8277 9.39236 21.842 9.7687 21.842 12.9747C21.842 16.1808 21.8277 16.5571 21.7706 17.8243C21.7182 18.9962 21.5228 19.6298 21.3561 20.0537C21.137 20.6159 20.8797 21.016 20.4605 21.4352C20.0413 21.8544 19.6411 22.1165 19.079 22.3308C18.655 22.4928 18.0215 22.6929 16.8496 22.7453C15.5824 22.8024 15.206 22.8167 12 22.8167C8.79397 22.8167 8.41763 22.8024 7.15046 22.7453C5.97857 22.6929 5.34498 22.4976 4.921 22.3308C4.35888 22.1117 3.95872 21.8544 3.5395 21.4352C3.12029 21.016 2.85828 20.6159 2.64391 20.0537C2.48194 19.6298 2.28186 18.9962 2.22946 17.8243C2.17229 16.5571 2.158 16.1808 2.158 12.9747C2.158 9.7687 2.17229 9.39236 2.22946 8.12519C2.28186 6.9533 2.47718 6.31971 2.64391 5.89573C2.86304 5.33361 3.12029 4.93345 3.5395 4.51423C3.95872 4.09502 4.35888 3.83301 4.921 3.61864C5.34498 3.45667 5.97857 3.25659 7.15046 3.20419C8.41763 3.14226 8.79874 3.13273 12 3.13273Z" fill="white"/>
    <path d="M12 6.8103C8.59869 6.8103 5.83569 9.56854 5.83569 12.9747C5.83569 16.3808 8.59393 19.139 12 19.139C15.4062 19.139 18.1644 16.3808 18.1644 12.9747C18.1644 9.56854 15.4062 6.8103 12 6.8103ZM12 16.9715C9.78964 16.9715 7.99846 15.1803 7.99846 12.9699C7.99846 10.7595 9.78964 8.9683 12 8.9683C14.2104 8.9683 16.0016 10.7595 16.0016 12.9699C16.0016 15.1803 14.2104 16.9715 12 16.9715Z" fill="#5182A0"/>
    <path d="M18.4074 8.00136C19.202 8.00136 19.8461 7.35724 19.8461 6.56269C19.8461 5.76814 19.202 5.12402 18.4074 5.12402C17.6129 5.12402 16.9688 5.76814 16.9688 6.56269C16.9688 7.35724 17.6129 8.00136 18.4074 8.00136Z" fill="#5182A0"/>
  </g>
  <defs>
    <clipPath id="clip0_114_936">
      <rect width="24" height="24" fill="white" transform="translate(0 0.969971)"/>
    </clipPath>
  </defs>
</svg>